<svg width="1920" height="1080" viewBox="0 0 1920 1080" xmlns="http://www.w3.org/2000/svg"><rect width="1920" height="1080" fill="#368396"/><path d="M 0,1080 C 0,1080 0,98 0,98 C 131.7374815905744,121.58449926362297 263.4749631811488,145.16899852724595 319,133 C 374.5250368188512,120.83100147275404 353.8376288659793,72.90850515463917 430,67 C 506.1623711340207,61.09149484536083 679.1745213549337,97.19698085419736 788,111 C 896.8254786450663,124.80301914580264 941.4642857142858,116.30357142857144 1006,109 C 1070.5357142857142,101.69642857142856 1154.9683357879235,95.58873343151691 1252,102 C 1349.0316642120765,108.41126656848309 1458.6623711340205,127.34149484536083 1510,127 C 1561.3376288659795,126.65850515463917 1554.3821796759942,107.04528718703978 1613,99 C 1671.6178203240058,90.95471281296022 1795.808910162003,94.47735640648011 1920,98 C 1920,98 1920,1080 1920,1080 Z" fill="#341d6f" opacity="0.05454545454545454"/><path d="M 0,1080 C 0,1080 0,196 0,196 C 62.89635493372609,200.95986745213548 125.79270986745217,205.919734904271 212,196 C 298.2072901325478,186.080265095729 407.72551546391753,161.28092783505156 515,166 C 622.2744845360825,170.71907216494844 727.3052282768778,204.95655375552283 789,213 C 850.6947717231222,221.04344624447717 869.0535714285714,202.89285714285714 906,199 C 942.9464285714286,195.10714285714286 998.4804860088366,205.4720176730486 1119,199 C 1239.5195139911634,192.5279823269514 1425.0244845360824,169.21907216494847 1505,173 C 1584.9755154639176,176.78092783505153 1559.4215758468335,207.6516936671576 1611,216 C 1662.5784241531665,224.3483063328424 1791.2892120765832,210.1741531664212 1920,196 C 1920,196 1920,1080 1920,1080 Z" fill="#341d6f" opacity="0.10909090909090909"/><path d="M 0,1080 C 0,1080 0,294 0,294 C 114.71189248895436,283.17139175257734 229.42378497790872,272.34278350515467 299,280 C 368.5762150220913,287.65721649484533 393.0167525773196,313.80025773195877 450,325 C 506.9832474226804,336.19974226804123 596.509204712813,332.4561855670103 702,327 C 807.490795287187,321.5438144329897 928.9464285714287,314.37500000000006 996,315 C 1063.0535714285713,315.62499999999994 1075.7050810014728,324.0438144329897 1143,312 C 1210.2949189985272,299.9561855670103 1332.2332474226803,267.44974226804123 1437,270 C 1541.7667525773197,272.55025773195877 1629.3619293078057,310.1572164948454 1707,320 C 1784.6380706921943,329.8427835051546 1852.3190353460973,311.9213917525773 1920,294 C 1920,294 1920,1080 1920,1080 Z" fill="#341d6f" opacity="0.16363636363636364"/><path d="M 0,1080 C 0,1080 0,392 0,392 C 49.97367452135494,378.20360824742266 99.94734904270987,364.40721649484533 166,369 C 232.05265095729013,373.59278350515467 314.18427835051546,396.5747422680413 402,393 C 489.81572164948454,389.4252577319587 583.3155375552282,359.2938144329897 688,362 C 792.6844624447718,364.7061855670103 908.5535714285716,400.24999999999994 994,411 C 1079.4464285714284,421.75000000000006 1134.470176730486,407.7061855670104 1180,400 C 1225.529823269514,392.2938144329896 1261.5657216494844,390.92525773195877 1363,382 C 1464.4342783505156,373.07474226804123 1631.2669366715759,356.59278350515467 1735,357 C 1838.7330633284241,357.40721649484533 1879.366531664212,374.70360824742266 1920,392 C 1920,392 1920,1080 1920,1080 Z" fill="#341d6f" opacity="0.21818181818181817"/><path d="M 0,1080 C 0,1080 0,490 0,490 C 53.19569219440356,498.3926730486009 106.39138438880713,506.7853460972018 209,510 C 311.6086156111929,513.2146539027982 463.6301546391752,511.2512886597939 539,512 C 614.3698453608248,512.7487113402061 613.087997054492,516.209499263623 694,501 C 774.912002945508,485.79050073637706 938.0178571428571,451.9107142857143 1013,461 C 1087.982142857143,470.0892857142857 1074.8405743740796,522.1476435935199 1123,524 C 1171.1594256259204,525.8523564064801 1280.6198453608247,477.4987113402061 1390,462 C 1499.3801546391753,446.5012886597939 1608.6800441826215,463.85751104565543 1697,474 C 1785.3199558173785,484.14248895434457 1852.6599779086891,487.0712444771723 1920,490 C 1920,490 1920,1080 1920,1080 Z" fill="#341d6f" opacity="0.2727272727272727"/><path d="M 0,1080 C 0,1080 0,589 0,589 C 76.31940353460973,575.3008100147275 152.63880706921947,561.601620029455 215,555 C 277.36119293078053,548.398379970545 325.76417525773195,548.8943298969073 395,558 C 464.23582474226805,567.1056701030927 554.3044918998528,584.821060382916 640,588 C 725.6955081001472,591.178939617084 807.0178571428571,579.8214285714286 882,574 C 956.9821428571429,568.1785714285714 1025.6240795287188,567.8932253313698 1120,582 C 1214.3759204712812,596.1067746686302 1334.485824742268,624.6056701030926 1431,622 C 1527.514175257732,619.3943298969074 1600.4326215022093,585.6840942562593 1678,575 C 1755.5673784977907,564.3159057437407 1837.7836892488954,576.6579528718703 1920,589 C 1920,589 1920,1080 1920,1080 Z" fill="#341d6f" opacity="0.32727272727272727"/><path d="M 0,1080 C 0,1080 0,687 0,687 C 45.08670839469809,678.4276509572901 90.17341678939619,669.8553019145803 152,667 C 213.82658321060381,664.1446980854197 292.3930412371134,667.006443298969 397,680 C 501.6069587628866,692.993556701031 632.2544182621501,716.1189248895435 743,716 C 853.7455817378499,715.8810751104565 944.5892857142858,692.5178571428572 1039,694 C 1133.4107142857142,695.4821428571428 1231.3884388807069,721.8096465390279 1278,723 C 1324.6115611192931,724.1903534609721 1319.8569587628867,700.243556701031 1404,693 C 1488.1430412371133,685.756443298969 1661.1837260677466,695.2161266568484 1762,697 C 1862.8162739322534,698.7838733431516 1891.4081369661267,692.8919366715759 1920,687 C 1920,687 1920,1080 1920,1080 Z" fill="#341d6f" opacity="0.3818181818181818"/><path d="M 0,1080 C 0,1080 0,785 0,785 C 95.98692930780561,791.3113033873343 191.97385861561122,797.6226067746686 293,807 C 394.0261413843888,816.3773932253314 500.0914948453608,828.8208762886599 565,817 C 629.9085051546392,805.1791237113401 653.6601620029455,769.0938880706922 703,764 C 752.3398379970545,758.9061119293078 827.2678571428571,784.8035714285714 915,790 C 1002.7321428571429,795.1964285714286 1103.268409425626,779.691826215022 1205,772 C 1306.731590574374,764.308173784978 1409.6585051546392,764.4291237113401 1472,764 C 1534.3414948453608,763.5708762886599 1556.0975699558173,762.5916789396172 1624,766 C 1691.9024300441827,769.4083210603828 1805.9512150220912,777.2041605301914 1920,785 C 1920,785 1920,1080 1920,1080 Z" fill="#341d6f" opacity="0.43636363636363634"/><path d="M 0,1080 C 0,1080 0,883 0,883 C 63.65022091310752,887.6800441826215 127.30044182621504,892.3600883652431 215,893 C 302.69955817378496,893.6399116347569 414.4484536082474,890.2396907216494 475,888 C 535.5515463917526,885.7603092783506 544.9057437407953,884.6811487481591 639,890 C 733.0942562592047,895.3188512518409 911.9285714285713,907.0357142857142 1025,914 C 1138.0714285714287,920.9642857142858 1185.3799705449192,923.1759941089838 1265,911 C 1344.6200294550808,898.8240058910162 1456.5515463917523,872.2603092783505 1520,868 C 1583.4484536082477,863.7396907216495 1598.4138438880707,881.7827687776141 1657,888 C 1715.5861561119293,894.2172312223859 1817.7930780559645,888.6086156111929 1920,883 C 1920,883 1920,1080 1920,1080 Z" fill="#341d6f" opacity="0.4909090909090909"/><path d="M 0,1080 C 0,1080 0,981 0,981 C 69.81167157584682,964.4449558173785 139.62334315169363,947.8899116347569 207,945 C 274.37665684830637,942.1100883652431 339.3182989690722,952.8853092783506 438,967 C 536.6817010309278,981.1146907216494 669.1034609720177,998.5688512518408 763,1008 C 856.8965390279823,1017.4311487481592 912.2678571428571,1018.8392857142859 998,1015 C 1083.732142857143,1011.1607142857141 1199.8251104565538,1002.074005891016 1258,999 C 1316.1748895434462,995.925994108984 1316.431701030928,998.8646907216496 1402,1002 C 1487.568298969072,1005.1353092783504 1658.448085419735,1008.4672312223859 1759,1005 C 1859.551914580265,1001.5327687776141 1889.7759572901325,991.2663843888071 1920,981 C 1920,981 1920,1080 1920,1080 Z" fill="#341d6f" opacity="0.5454545454545454"/></svg>