<svg width="1920" height="1080" viewBox="0 0 1920 1080" xmlns="http://www.w3.org/2000/svg"><rect width="1920" height="1080" fill="#e0675e"/><path d="M 0,1080 C 0,1080 0,98 0,98 C 123.56167157584682,76.18298969072166 247.12334315169363,54.365979381443296 326,65 C 404.87665684830637,75.6340206185567 439.0682989690721,118.71907216494844 482,121 C 524.9317010309279,123.28092783505156 576.6034609720177,84.75773195876289 666,69 C 755.3965390279823,53.242268041237104 882.5178571428569,60.25 984,77 C 1085.4821428571431,93.75 1161.325110456554,120.24226804123712 1250,123 C 1338.674889543446,125.75773195876288 1440.181701030928,104.78092783505154 1520,106 C 1599.818298969072,107.21907216494846 1657.9480854197348,130.6340206185567 1721,133 C 1784.0519145802652,135.3659793814433 1852.0259572901327,116.68298969072166 1920,98 C 1920,98 1920,1080 1920,1080 Z" fill="#341d6f" opacity="0.05454545454545454"/><path d="M 0,1080 C 0,1080 0,196 0,196 C 118.7717231222386,178.62849779086892 237.5434462444772,161.25699558173784 315,165 C 392.4565537555228,168.74300441826216 428.59793814433,193.60051546391756 500,205 C 571.40206185567,216.39948453608244 678.0648011782032,214.34094256259203 773,205 C 867.9351988217968,195.65905743740797 951.1428571428573,179.0357142857143 1036,181 C 1120.8571428571427,182.9642857142857 1207.3637702503681,203.5162002945508 1285,213 C 1362.6362297496319,222.4837997054492 1431.4020618556701,220.8994845360825 1496,221 C 1560.5979381443299,221.1005154639175 1621.0279823269514,222.8858615611193 1691,219 C 1760.9720176730486,215.1141384388807 1840.4860088365244,205.55706921944034 1920,196 C 1920,196 1920,1080 1920,1080 Z" fill="#341d6f" opacity="0.10909090909090909"/><path d="M 0,1080 C 0,1080 0,294 0,294 C 91.83836524300446,279.1194771723122 183.67673048600892,264.2389543446244 249,274 C 314.3232695139911,283.7610456553756 353.131443298969,318.1636597938145 443,322 C 532.868556701031,325.8363402061855 673.7974963181149,299.1064064801178 769,300 C 864.2025036818851,300.8935935198822 913.6785714285713,329.4107142857143 997,327 C 1080.3214285714287,324.5892857142857 1197.4882179675994,291.2507363770251 1248,277 C 1298.5117820324006,262.7492636229749 1282.368556701031,267.5863402061855 1363,268 C 1443.631443298969,268.4136597938145 1621.037555228277,264.4039027982327 1730,268 C 1838.962444771723,271.5960972017673 1879.4812223858617,282.79804860088365 1920,294 C 1920,294 1920,1080 1920,1080 Z" fill="#341d6f" opacity="0.16363636363636364"/><path d="M 0,1080 C 0,1080 0,392 0,392 C 37.02209131075111,378.1643961708395 74.04418262150222,364.32879234167893 169,365 C 263.9558173784978,365.67120765832107 416.8453608247422,380.8492268041237 511,386 C 605.1546391752578,391.1507731958763 640.5743740795286,386.27430044182626 692,393 C 743.4256259204714,399.72569955817374 810.857142857143,418.05357142857144 889,416 C 967.142857142857,413.94642857142856 1055.9970544918997,391.5114138438881 1128,387 C 1200.0029455081003,382.4885861561119 1255.154639175258,395.90077319587624 1371,402 C 1486.845360824742,408.09922680412376 1663.3843888070692,406.8854933726068 1765,404 C 1866.6156111929308,401.1145066273932 1893.3078055964654,396.5572533136966 1920,392 C 1920,392 1920,1080 1920,1080 Z" fill="#341d6f" opacity="0.21818181818181817"/><path d="M 0,1080 C 0,1080 0,490 0,490 C 69.23600883652429,483.76988217967596 138.47201767304858,477.539764359352 221,475 C 303.5279823269514,472.460235640648 399.3479381443299,473.61082474226805 471,481 C 542.6520618556701,488.38917525773195 590.1362297496318,502.0169366715759 656,515 C 721.8637702503682,527.9830633284241 806.107142857143,540.3214285714286 910,527 C 1013.892857142857,513.6785714285714 1137.4351988217966,474.6973490427099 1235,461 C 1332.5648011782034,447.3026509572901 1404.1520618556701,458.88917525773195 1462,473 C 1519.8479381443299,487.11082474226805 1563.9565537555231,503.7459499263623 1638,507 C 1712.0434462444769,510.2540500736377 1816.0217231222384,500.12702503681885 1920,490 C 1920,490 1920,1080 1920,1080 Z" fill="#341d6f" opacity="0.2727272727272727"/><path d="M 0,1080 C 0,1080 0,589 0,589 C 118.82124447717231,592.9431148748158 237.64248895434463,596.8862297496318 317,599 C 396.3575110456554,601.1137702503682 436.2512886597939,601.3981958762886 493,596 C 549.7487113402061,590.6018041237114 623.35235640648,579.5209867452137 711,576 C 798.64764359352,572.4790132547863 900.3392857142858,576.517857142857 984,586 C 1067.6607142857142,595.482142857143 1133.290500736377,610.407584683358 1194,617 C 1254.709499263623,623.592415316642 1310.4987113402062,621.8518041237113 1375,615 C 1439.5012886597938,608.1481958762887 1512.7146539027983,596.1851988217968 1605,591 C 1697.2853460972017,585.8148011782032 1808.642673048601,587.4074005891016 1920,589 C 1920,589 1920,1080 1920,1080 Z" fill="#341d6f" opacity="0.32727272727272727"/><path d="M 0,1080 C 0,1080 0,687 0,687 C 100.75589101620031,690.8854933726068 201.51178203240062,694.7709867452135 262,695 C 322.4882179675994,695.2290132547865 342.708762886598,691.8015463917526 423,687 C 503.291237113402,682.1984536082474 643.6531664212075,676.0228276877762 753,681 C 862.3468335787925,685.9771723122238 940.6785714285716,702.1071428571428 994,706 C 1047.3214285714284,709.8928571428572 1075.6325478645065,701.5486008836525 1163,694 C 1250.3674521354935,686.4513991163475 1396.791237113402,679.6984536082474 1508,677 C 1619.208762886598,674.3015463917526 1695.2025036818852,675.6575846833579 1758,678 C 1820.7974963181148,680.3424153166421 1870.3987481590575,683.671207658321 1920,687 C 1920,687 1920,1080 1920,1080 Z" fill="#341d6f" opacity="0.3818181818181818"/><path d="M 0,1080 C 0,1080 0,785 0,785 C 77.73140648011784,803.482326951399 155.46281296023568,821.9646539027982 226,815 C 296.5371870397643,808.0353460972018 359.8801546391752,775.6237113402062 439,772 C 518.1198453608248,768.3762886597938 613.0165684830633,793.540500736377 690,808 C 766.9834315169367,822.459499263623 826.0535714285716,826.2142857142857 915,821 C 1003.9464285714284,815.7857142857143 1122.7691458026507,801.6023564064801 1206,801 C 1289.2308541973493,800.3976435935199 1336.869845360825,813.3762886597939 1409,820 C 1481.130154639175,826.6237113402061 1577.7514727540502,826.8924889543447 1667,820 C 1756.2485272459498,813.1075110456553 1838.124263622975,799.0537555228277 1920,785 C 1920,785 1920,1080 1920,1080 Z" fill="#341d6f" opacity="0.43636363636363634"/><path d="M 0,1080 C 0,1080 0,883 0,883 C 18.837076583210603,871.6069587628866 37.674153166421206,860.2139175257732 151,872 C 264.3258468335788,883.7860824742268 472.14046391752584,918.7512886597939 560,913 C 647.8595360824742,907.2487113402061 615.7639911634757,860.7809278350516 667,846 C 718.2360088365243,831.2190721649484 852.8035714285716,848.1249999999999 974,851 C 1095.1964285714284,853.8750000000001 1203.0217231222387,842.7190721649483 1260,851 C 1316.9782768777613,859.2809278350517 1323.1095360824743,886.9987113402062 1385,892 C 1446.8904639175257,897.0012886597938 1564.5401325478645,879.2860824742268 1663,874 C 1761.4598674521355,868.7139175257732 1840.7299337260679,875.8569587628866 1920,883 C 1920,883 1920,1080 1920,1080 Z" fill="#341d6f" opacity="0.4909090909090909"/><path d="M 0,1080 C 0,1080 0,981 0,981 C 105.11340206185565,987.276325478645 210.2268041237113,993.5526509572902 296,984 C 381.7731958762887,974.4473490427098 448.20618556701027,949.0657216494843 517,945 C 585.7938144329897,940.9342783505157 656.9484536082474,958.184462444772 725,975 C 793.0515463917526,991.815537555228 857.9999999999999,1008.1964285714286 919,1014 C 980.0000000000001,1019.8035714285714 1037.0515463917525,1015.029823269514 1149,1009 C 1260.9484536082475,1002.970176730486 1427.7938144329896,995.6842783505155 1501,994 C 1574.2061855670104,992.3157216494845 1553.7731958762886,996.2330633284242 1608,995 C 1662.2268041237114,993.7669366715758 1791.1134020618556,987.3834683357879 1920,981 C 1920,981 1920,1080 1920,1080 Z" fill="#341d6f" opacity="0.5454545454545454"/></svg>